<svg xmlns="http://www.w3.org/2000/svg" width="375" viewBox="0 0 375 375" height="375" version="1.0"><defs><clipPath id="a"><path d="M 77.335938 148.328125 L 135.835938 148.328125 L 135.835938 206.828125 L 77.335938 206.828125 Z M 77.335938 148.328125"/></clipPath></defs><path d="M 109.144531 168.050781 C 108.296875 167.65625 107.421875 167.347656 106.511719 167.128906 C 105.835938 166.910156 105.023438 165.003906 100.21875 166.242188 C 100.664062 167.683594 103.300781 165.582031 105.722656 168.65625 C 108.136719 169.324219 110.019531 168.4375 110.898438 169.542969 C 111.566406 170.199219 112.597656 169.757812 112.789062 168.65625 C 112.984375 167.554688 110.019531 168.542969 109.144531 168.050781 Z M 109.144531 168.050781"/><g clip-path="url(#a)"><path d="M 106.570312 148.328125 C 105.613281 148.328125 104.65625 148.375 103.703125 148.46875 C 102.75 148.566406 101.804688 148.703125 100.867188 148.890625 C 99.925781 149.078125 99 149.3125 98.082031 149.589844 C 97.167969 149.867188 96.265625 150.1875 95.382812 150.554688 C 94.496094 150.921875 93.632812 151.332031 92.789062 151.78125 C 91.945312 152.234375 91.125 152.726562 90.328125 153.257812 C 89.53125 153.789062 88.765625 154.359375 88.023438 154.964844 C 87.285156 155.574219 86.574219 156.214844 85.898438 156.890625 C 85.222656 157.570312 84.578125 158.277344 83.972656 159.019531 C 83.363281 159.757812 82.792969 160.527344 82.261719 161.324219 C 81.730469 162.117188 81.238281 162.9375 80.789062 163.78125 C 80.335938 164.628906 79.925781 165.492188 79.5625 166.375 C 79.195312 167.261719 78.871094 168.160156 78.59375 169.078125 C 78.316406 169.992188 78.082031 170.921875 77.898438 171.859375 C 77.710938 172.800781 77.570312 173.746094 77.476562 174.699219 C 77.382812 175.652344 77.335938 176.605469 77.335938 177.5625 C 77.335938 178.519531 77.382812 179.476562 77.476562 180.429688 C 77.570312 181.382812 77.710938 182.328125 77.898438 183.265625 C 78.082031 184.207031 78.316406 185.132812 78.59375 186.050781 C 78.871094 186.964844 79.195312 187.867188 79.5625 188.75 C 79.925781 189.636719 80.335938 190.5 80.789062 191.34375 C 81.238281 192.1875 81.730469 193.007812 82.261719 193.804688 C 82.792969 194.601562 83.363281 195.371094 83.972656 196.109375 C 84.578125 196.851562 85.222656 197.558594 85.898438 198.234375 C 86.574219 198.914062 87.285156 199.554688 88.023438 200.160156 C 88.765625 200.769531 89.53125 201.339844 90.328125 201.871094 C 91.125 202.402344 91.945312 202.894531 92.789062 203.347656 C 93.632812 203.796875 94.496094 204.207031 95.382812 204.574219 C 96.265625 204.9375 97.167969 205.261719 98.082031 205.539062 C 99 205.816406 99.925781 206.050781 100.867188 206.234375 C 101.804688 206.421875 102.75 206.5625 103.703125 206.65625 C 104.65625 206.75 105.613281 206.796875 106.570312 206.796875 C 107.527344 206.796875 108.480469 206.75 109.433594 206.65625 C 110.386719 206.5625 111.332031 206.421875 112.273438 206.234375 C 113.210938 206.050781 114.140625 205.816406 115.054688 205.539062 C 115.972656 205.261719 116.871094 204.9375 117.757812 204.574219 C 118.640625 204.207031 119.503906 203.796875 120.351562 203.347656 C 121.195312 202.894531 122.015625 202.402344 122.8125 201.871094 C 123.605469 201.339844 124.375 200.769531 125.113281 200.160156 C 125.855469 199.554688 126.5625 198.914062 127.242188 198.234375 C 127.917969 197.558594 128.558594 196.851562 129.167969 196.109375 C 129.773438 195.371094 130.34375 194.601562 130.875 193.804688 C 131.410156 193.007812 131.898438 192.1875 132.351562 191.34375 C 132.800781 190.5 133.210938 189.636719 133.578125 188.75 C 133.945312 187.867188 134.265625 186.964844 134.542969 186.050781 C 134.824219 185.132812 135.054688 184.207031 135.242188 183.265625 C 135.429688 182.328125 135.570312 181.382812 135.664062 180.429688 C 135.757812 179.476562 135.804688 178.519531 135.804688 177.5625 C 135.804688 176.605469 135.757812 175.652344 135.664062 174.699219 C 135.570312 173.746094 135.429688 172.800781 135.242188 171.859375 C 135.054688 170.921875 134.824219 169.992188 134.546875 169.078125 C 134.269531 168.160156 133.945312 167.261719 133.582031 166.375 C 133.214844 165.492188 132.804688 164.625 132.355469 163.78125 C 131.902344 162.9375 131.410156 162.117188 130.878906 161.320312 C 130.347656 160.523438 129.777344 159.757812 129.171875 159.015625 C 128.5625 158.277344 127.921875 157.566406 127.242188 156.890625 C 126.566406 156.210938 125.859375 155.570312 125.117188 154.964844 C 124.378906 154.355469 123.609375 153.785156 122.8125 153.253906 C 122.015625 152.722656 121.195312 152.230469 120.351562 151.78125 C 119.507812 151.328125 118.644531 150.917969 117.757812 150.554688 C 116.875 150.1875 115.972656 149.863281 115.054688 149.585938 C 114.140625 149.308594 113.210938 149.078125 112.273438 148.890625 C 111.335938 148.703125 110.386719 148.5625 109.433594 148.46875 C 108.480469 148.375 107.527344 148.328125 106.570312 148.328125 Z M 88.003906 193.296875 C 88.808594 194.503906 85.984375 195.160156 86.5 196.039062 C 87.121094 196.84375 87.660156 197.703125 88.109375 198.613281 C 87.652344 198.210938 87.183594 197.808594 86.75 197.390625 C 84.449219 195.082031 82.609375 192.449219 81.226562 189.5 C 79.84375 186.546875 79.003906 183.449219 78.703125 180.203125 C 80.796875 181.441406 84.085938 186.800781 88.039062 187.886719 C 88.996094 188.5625 87.234375 192.082031 88.003906 193.296875 Z M 91.128906 159.925781 C 91.023438 160.730469 90.417969 161.632812 88.792969 162.621094 C 88.496094 163.03125 87.136719 163.601562 86.992188 163.964844 C 86.847656 164.328125 86.453125 164.441406 85.945312 164.601562 C 85.21875 164.898438 84.585938 165.324219 84.039062 165.886719 C 83.851562 166.210938 83.613281 166.050781 82.429688 166.332031 C 81.859375 166.597656 81.265625 166.785156 80.644531 166.886719 C 82.039062 163.507812 84.023438 160.515625 86.589844 157.914062 C 87.417969 157.148438 88.335938 156.507812 89.339844 156 L 91.425781 154.703125 C 91.039062 155.660156 91.046875 156.3125 90.5625 156.84375 C 90.515625 157.535156 91.449219 159.03125 91.128906 159.925781 Z M 133.285156 186.027344 C 131.921875 190.382812 129.636719 194.179688 126.421875 197.414062 C 125.609375 198.207031 124.757812 198.949219 123.863281 199.644531 C 123.675781 199.742188 123.492188 199.828125 123.332031 199.894531 C 123.820312 196.402344 124.464844 195.234375 126.398438 194.390625 C 128.328125 193.542969 128.8125 192.363281 128.675781 190.753906 C 128.675781 188.152344 132.070312 186.769531 133.347656 185.867188 C 133.308594 185.898438 133.292969 185.972656 133.285156 186.027344 Z M 132.914062 168.078125 C 133.203125 168.867188 133.453125 169.671875 133.664062 170.492188 C 133.605469 173.164062 130.21875 174.515625 129.953125 175.601562 C 129.953125 175.695312 129.953125 175.785156 129.953125 175.875 C 130.429688 175.875 130.878906 176.234375 131.199219 177.371094 C 132.191406 180.886719 131.753906 182.199219 130.539062 182.199219 C 129.558594 182.199219 129.085938 180.523438 128.410156 178.8125 C 128.078125 178.558594 127.8125 178.253906 127.605469 177.894531 C 126.605469 176.242188 125.285156 171.945312 123.636719 171.617188 C 122.832031 171.464844 122.734375 172.542969 122.519531 173.765625 C 122.382812 174.503906 122.5 175.203125 122.863281 175.859375 C 122.457031 176.113281 122.148438 176.457031 121.9375 176.886719 C 121.722656 177.460938 120.859375 176.886719 120.328125 176.886719 C 119.050781 177.507812 117.914062 176.574219 117.640625 175.046875 C 116.765625 173.675781 116.226562 172.058594 115.082031 172.632812 C 116.074219 173.949219 116.410156 178.265625 117.398438 179.238281 C 120.371094 179.238281 120.699219 176.929688 120.054688 180.894531 C 119.925781 181.742188 119.699219 182.5625 119.378906 183.359375 C 119.265625 184.757812 118.976562 185.425781 118.574219 185.84375 C 118.171875 186.261719 116.835938 187.285156 116.691406 187.5 C 116.917969 188.304688 116.191406 188.605469 115.886719 188.886719 C 115.855469 188.988281 115.84375 189.09375 115.847656 189.199219 C 116.230469 189.480469 116.660156 189.632812 117.136719 189.65625 C 118.800781 189.519531 121.246094 188.714844 119.371094 190.800781 C 118.632812 191.492188 118.042969 192.023438 117.554688 192.410156 C 117.617188 192.503906 117.632812 192.605469 117.601562 192.714844 C 117.425781 193.078125 117.117188 193.785156 116.972656 194.058594 C 117.085938 194.582031 116.902344 194.535156 116.441406 194.332031 C 115.871094 194.613281 115.945312 194.21875 115.6875 193.730469 C 115.613281 193.601562 115.550781 193.464844 115.492188 193.328125 C 115.429688 193.210938 115.386719 193.089844 115.363281 192.957031 C 115.324219 192.796875 115.285156 192.628906 115.25 192.425781 C 115.222656 191.972656 115 191.644531 114.59375 191.445312 C 112.984375 190.785156 113.789062 193.761719 111.4375 196.402344 C 107.46875 199.378906 106.8125 196.730469 104.824219 194.082031 C 102.835938 191.4375 106.039062 190.863281 105.273438 186.085938 C 103.625 185.09375 102.183594 181.867188 102.183594 181.867188 L 101.171875 181.867188 C 100.878906 181.867188 100.953125 182.140625 100.453125 182.101562 C 99.953125 182.0625 98.902344 181.886719 98.257812 181.886719 C 97.613281 181.886719 97.5 182.117188 97 181.886719 C 96.539062 181.875 96.101562 181.964844 95.683594 182.160156 C 95.570312 182.234375 95.445312 182.289062 95.3125 182.316406 C 95.175781 182.34375 95.042969 182.34375 94.910156 182.320312 C 94.773438 182.292969 94.652344 182.242188 94.535156 182.167969 C 94.421875 182.09375 94.328125 182 94.25 181.886719 C 94.25 181.886719 91.273438 177.589844 91.941406 174.644531 C 92.609375 171.699219 93.917969 171.003906 96.558594 168.6875 C 96.125 167.039062 94.578125 168.140625 94.804688 166.050781 C 95.351562 162.308594 98.21875 165.058594 98.765625 162.75 C 98.804688 162.644531 98.824219 162.535156 98.8125 162.421875 C 98.804688 162.308594 98.769531 162.203125 98.710938 162.105469 C 98.652344 162.007812 98.574219 161.929688 98.476562 161.871094 C 98.378906 161.8125 98.273438 161.777344 98.160156 161.769531 C 97.445312 161.6875 96.589844 162.492188 95.84375 162.332031 C 95.09375 162.171875 94.460938 161.984375 95.160156 161.15625 C 95.246094 161.019531 95.347656 160.890625 95.457031 160.769531 C 95.890625 160.296875 96.261719 159.859375 96.664062 159.484375 C 96.882812 159.265625 97.074219 159.089844 97.21875 158.96875 C 97.492188 158.105469 97.917969 157.308594 98.941406 157.632812 C 99.964844 157.953125 99.183594 158.589844 99.296875 159.242188 C 99.867188 162.976562 100.90625 162.257812 101.402344 161.65625 C 101.179688 160.554688 104.484375 161.109375 103.054688 160.449219 C 102.902344 160.375 102.78125 160.269531 102.683594 160.132812 C 102.410156 159.910156 102.222656 159.675781 102.273438 159.394531 C 102.320312 159.113281 102.183594 158.855469 102.359375 158.589844 C 102.3125 158.328125 102.355469 158.085938 102.488281 157.855469 C 102.53125 157.738281 102.570312 157.609375 102.617188 157.488281 C 102.617188 157.164062 102.890625 156.441406 103.101562 156.34375 C 103.160156 156.324219 103.21875 156.308594 103.277344 156.304688 C 103.75 155.695312 104.34375 155.242188 105.054688 154.953125 C 105.066406 154.886719 105.066406 154.824219 105.054688 154.757812 C 105.054688 154.597656 105.859375 154.605469 105.859375 154.605469 L 105.957031 154.679688 C 106.414062 154.582031 106.871094 154.515625 107.332031 154.46875 C 107.683594 154.378906 108.007812 154.242188 108.316406 154.050781 C 108.316406 154.050781 109.167969 154.050781 109.199219 154.453125 L 109.617188 154.453125 C 109.851562 154.453125 110.039062 154.285156 110.328125 154.234375 C 110.753906 154.15625 110.914062 154.636719 111.421875 155.105469 C 111.636719 155.25 111.792969 155.445312 111.882812 155.6875 C 111.976562 155.933594 111.988281 156.179688 111.921875 156.433594 C 113.238281 156.433594 116.652344 154.019531 116.652344 154.019531 C 116.652344 154.019531 121.359375 155.347656 120.789062 156.667969 C 119.90625 156.308594 118.988281 156.128906 118.035156 156.128906 C 117.082031 156.128906 116.167969 156.308594 115.285156 156.667969 C 114.625 156.914062 116.707031 157.65625 119.136719 157.65625 C 125.253906 157.769531 130.703125 164.054688 132.914062 168.078125 Z M 132.914062 168.078125"/></g><g><g><g><path d="M 18.484375 -3.703125 C 18.484375 -3.117188 18.507812 -2.644531 18.5625 -2.28125 C 18.625 -1.925781 18.738281 -1.648438 18.90625 -1.453125 C 19.082031 -1.265625 19.328125 -1.128906 19.640625 -1.046875 C 19.960938 -0.972656 20.382812 -0.929688 20.90625 -0.921875 L 20.90625 0 L 12.46875 0 L 12.46875 -0.921875 C 13.039062 -0.929688 13.5 -0.972656 13.84375 -1.046875 C 14.1875 -1.128906 14.453125 -1.257812 14.640625 -1.4375 C 14.835938 -1.625 14.960938 -1.882812 15.015625 -2.21875 C 15.078125 -2.5625 15.109375 -3 15.109375 -3.53125 L 15.109375 -8.34375 L 6.59375 -8.34375 L 6.59375 -3.703125 C 6.59375 -3.117188 6.625 -2.644531 6.6875 -2.28125 C 6.75 -1.925781 6.867188 -1.648438 7.046875 -1.453125 C 7.234375 -1.265625 7.5 -1.128906 7.84375 -1.046875 C 8.1875 -0.972656 8.640625 -0.929688 9.203125 -0.921875 L 9.203125 0 L 0.796875 0 L 0.796875 -0.921875 C 1.316406 -0.929688 1.734375 -0.972656 2.046875 -1.046875 C 2.367188 -1.128906 2.613281 -1.257812 2.78125 -1.4375 C 2.945312 -1.625 3.0625 -1.882812 3.125 -2.21875 C 3.1875 -2.5625 3.21875 -3 3.21875 -3.53125 L 3.21875 -14.15625 C 3.21875 -14.6875 3.191406 -15.113281 3.140625 -15.4375 C 3.085938 -15.769531 2.984375 -16.03125 2.828125 -16.21875 C 2.671875 -16.414062 2.453125 -16.546875 2.171875 -16.609375 C 1.890625 -16.679688 1.519531 -16.734375 1.0625 -16.765625 L 1.0625 -17.6875 L 8.984375 -17.6875 L 8.984375 -16.765625 C 8.460938 -16.753906 8.046875 -16.707031 7.734375 -16.625 C 7.421875 -16.550781 7.175781 -16.414062 7 -16.21875 C 6.832031 -16.019531 6.722656 -15.742188 6.671875 -15.390625 C 6.617188 -15.035156 6.59375 -14.566406 6.59375 -13.984375 L 6.59375 -9.765625 L 15.109375 -9.765625 L 15.109375 -14.15625 C 15.109375 -14.6875 15.078125 -15.113281 15.015625 -15.4375 C 14.960938 -15.769531 14.847656 -16.03125 14.671875 -16.21875 C 14.503906 -16.414062 14.265625 -16.546875 13.953125 -16.609375 C 13.640625 -16.679688 13.222656 -16.734375 12.703125 -16.765625 L 12.703125 -17.6875 L 20.65625 -17.6875 L 20.65625 -16.765625 C 20.1875 -16.753906 19.8125 -16.707031 19.53125 -16.625 C 19.25 -16.550781 19.03125 -16.414062 18.875 -16.21875 C 18.726562 -16.019531 18.625 -15.742188 18.5625 -15.390625 C 18.507812 -15.035156 18.484375 -14.566406 18.484375 -13.984375 Z M 18.484375 -3.703125" transform="translate(164.311 170.074)"/></g></g></g><g><g><g><path d="M 6.59375 -9.78125 C 7.570312 -9.78125 8.359375 -9.8125 8.953125 -9.875 C 9.554688 -9.9375 10.019531 -10.0625 10.34375 -10.25 C 10.675781 -10.445312 10.910156 -10.726562 11.046875 -11.09375 C 11.179688 -11.457031 11.289062 -11.957031 11.375 -12.59375 L 12.21875 -12.59375 L 12.21875 -5.859375 L 11.375 -5.859375 C 11.28125 -6.472656 11.15625 -6.960938 11 -7.328125 C 10.84375 -7.691406 10.597656 -7.96875 10.265625 -8.15625 C 9.929688 -8.351562 9.476562 -8.476562 8.90625 -8.53125 C 8.332031 -8.582031 7.5625 -8.609375 6.59375 -8.609375 L 6.59375 -3.875 C 6.59375 -3.382812 6.65625 -2.972656 6.78125 -2.640625 C 6.914062 -2.304688 7.132812 -2.035156 7.4375 -1.828125 C 7.75 -1.617188 8.15625 -1.472656 8.65625 -1.390625 C 9.164062 -1.304688 9.785156 -1.265625 10.515625 -1.265625 C 11.390625 -1.265625 12.128906 -1.320312 12.734375 -1.4375 C 13.335938 -1.5625 13.835938 -1.773438 14.234375 -2.078125 C 14.640625 -2.390625 14.960938 -2.800781 15.203125 -3.3125 C 15.453125 -3.832031 15.660156 -4.484375 15.828125 -5.265625 L 16.75 -5.265625 L 16.375 0 L 0.796875 0 L 0.796875 -0.921875 C 1.304688 -0.929688 1.722656 -0.972656 2.046875 -1.046875 C 2.367188 -1.128906 2.613281 -1.257812 2.78125 -1.4375 C 2.945312 -1.625 3.0625 -1.882812 3.125 -2.21875 C 3.1875 -2.5625 3.21875 -3 3.21875 -3.53125 L 3.21875 -14.15625 C 3.21875 -14.6875 3.191406 -15.113281 3.140625 -15.4375 C 3.085938 -15.769531 2.984375 -16.03125 2.828125 -16.21875 C 2.671875 -16.414062 2.453125 -16.546875 2.171875 -16.609375 C 1.890625 -16.679688 1.519531 -16.734375 1.0625 -16.765625 L 1.0625 -17.6875 L 15.578125 -17.6875 L 15.734375 -13.1875 L 14.75 -13.1875 C 14.65625 -13.832031 14.507812 -14.363281 14.3125 -14.78125 C 14.113281 -15.195312 13.835938 -15.53125 13.484375 -15.78125 C 13.128906 -16.039062 12.671875 -16.21875 12.109375 -16.3125 C 11.554688 -16.414062 10.875 -16.46875 10.0625 -16.46875 L 7.46875 -16.46875 C 7.070312 -16.46875 6.828125 -16.414062 6.734375 -16.3125 C 6.640625 -16.21875 6.59375 -15.988281 6.59375 -15.625 Z M 6.59375 -9.78125" transform="translate(188.073 170.074)"/></g></g></g><g><g><g><path d="M 16.625 0 L 0.796875 0 L 0.796875 -0.921875 C 1.304688 -0.929688 1.722656 -0.972656 2.046875 -1.046875 C 2.367188 -1.128906 2.613281 -1.257812 2.78125 -1.4375 C 2.945312 -1.625 3.0625 -1.882812 3.125 -2.21875 C 3.1875 -2.5625 3.21875 -3 3.21875 -3.53125 L 3.21875 -14.15625 C 3.21875 -14.6875 3.191406 -15.113281 3.140625 -15.4375 C 3.085938 -15.769531 2.984375 -16.03125 2.828125 -16.21875 C 2.671875 -16.414062 2.453125 -16.546875 2.171875 -16.609375 C 1.890625 -16.679688 1.519531 -16.734375 1.0625 -16.765625 L 1.0625 -17.6875 L 8.984375 -17.6875 L 8.984375 -16.765625 C 8.460938 -16.753906 8.046875 -16.707031 7.734375 -16.625 C 7.421875 -16.550781 7.175781 -16.414062 7 -16.21875 C 6.832031 -16.019531 6.722656 -15.742188 6.671875 -15.390625 C 6.617188 -15.035156 6.59375 -14.566406 6.59375 -13.984375 L 6.59375 -4.359375 C 6.59375 -3.722656 6.65625 -3.203125 6.78125 -2.796875 C 6.914062 -2.390625 7.144531 -2.070312 7.46875 -1.84375 C 7.789062 -1.625 8.21875 -1.472656 8.75 -1.390625 C 9.289062 -1.304688 9.957031 -1.265625 10.75 -1.265625 C 11.632812 -1.265625 12.375 -1.316406 12.96875 -1.421875 C 13.570312 -1.523438 14.078125 -1.726562 14.484375 -2.03125 C 14.890625 -2.332031 15.210938 -2.734375 15.453125 -3.234375 C 15.703125 -3.742188 15.910156 -4.40625 16.078125 -5.21875 L 17 -5.21875 Z M 16.625 0" transform="translate(207.679 170.074)"/></g></g></g><g><g><g><path d="M 16.078125 -12.765625 C 16.078125 -11.117188 15.429688 -9.859375 14.140625 -8.984375 C 12.859375 -8.117188 10.992188 -7.6875 8.546875 -7.6875 L 6.59375 -7.6875 L 6.59375 -3.65625 C 6.59375 -3.070312 6.628906 -2.597656 6.703125 -2.234375 C 6.785156 -1.878906 6.945312 -1.601562 7.1875 -1.40625 C 7.4375 -1.207031 7.773438 -1.078125 8.203125 -1.015625 C 8.628906 -0.953125 9.203125 -0.921875 9.921875 -0.921875 L 9.921875 0 L 0.796875 0 L 0.796875 -0.921875 C 1.304688 -0.929688 1.722656 -0.972656 2.046875 -1.046875 C 2.367188 -1.128906 2.613281 -1.257812 2.78125 -1.4375 C 2.945312 -1.625 3.0625 -1.882812 3.125 -2.21875 C 3.1875 -2.5625 3.21875 -3 3.21875 -3.53125 L 3.21875 -14.15625 C 3.21875 -14.6875 3.191406 -15.113281 3.140625 -15.4375 C 3.085938 -15.769531 2.984375 -16.03125 2.828125 -16.21875 C 2.671875 -16.414062 2.453125 -16.546875 2.171875 -16.609375 C 1.890625 -16.679688 1.519531 -16.734375 1.0625 -16.765625 L 1.0625 -17.6875 L 9 -17.6875 C 11.332031 -17.6875 13.09375 -17.269531 14.28125 -16.4375 C 15.476562 -15.613281 16.078125 -14.390625 16.078125 -12.765625 Z M 6.59375 -9.078125 L 8.078125 -9.078125 C 9.566406 -9.078125 10.65625 -9.375 11.34375 -9.96875 C 12.03125 -10.5625 12.375 -11.503906 12.375 -12.796875 C 12.375 -13.941406 12.082031 -14.828125 11.5 -15.453125 C 10.925781 -16.085938 10.019531 -16.40625 8.78125 -16.40625 L 7 -16.40625 C 6.726562 -16.40625 6.59375 -16.273438 6.59375 -16.015625 Z M 6.59375 -9.078125" transform="translate(227.078 170.074)"/></g></g></g><g><g><g><path d="M 9.03125 0 L 0.828125 0 L 0.828125 -0.921875 C 1.347656 -0.929688 1.765625 -0.976562 2.078125 -1.0625 C 2.390625 -1.144531 2.628906 -1.300781 2.796875 -1.53125 C 2.972656 -1.769531 3.085938 -2.097656 3.140625 -2.515625 C 3.203125 -2.929688 3.234375 -3.5 3.234375 -4.21875 L 3.234375 -13.453125 C 3.234375 -14.097656 3.207031 -14.628906 3.15625 -15.046875 C 3.101562 -15.472656 3 -15.804688 2.84375 -16.046875 C 2.695312 -16.296875 2.476562 -16.46875 2.1875 -16.5625 C 1.90625 -16.664062 1.53125 -16.734375 1.0625 -16.765625 L 1.0625 -17.6875 L 8.796875 -17.6875 L 8.796875 -16.765625 C 8.316406 -16.734375 7.9375 -16.664062 7.65625 -16.5625 C 7.375 -16.46875 7.15625 -16.296875 7 -16.046875 C 6.851562 -15.804688 6.75 -15.472656 6.6875 -15.046875 C 6.632812 -14.628906 6.609375 -14.097656 6.609375 -13.453125 L 6.609375 -4.21875 C 6.609375 -3.5 6.632812 -2.929688 6.6875 -2.515625 C 6.75 -2.097656 6.863281 -1.769531 7.03125 -1.53125 C 7.207031 -1.300781 7.453125 -1.144531 7.765625 -1.0625 C 8.085938 -0.976562 8.507812 -0.929688 9.03125 -0.921875 Z M 9.03125 0" transform="translate(245.606 170.074)"/></g></g></g><g><g><g><path d="M 15.390625 0.234375 L 5.21875 -14.265625 L 5.125 -14.265625 L 5.125 -4.390625 C 5.125 -3.617188 5.148438 -3.007812 5.203125 -2.5625 C 5.253906 -2.125 5.367188 -1.78125 5.546875 -1.53125 C 5.722656 -1.289062 5.96875 -1.128906 6.28125 -1.046875 C 6.59375 -0.972656 7.003906 -0.929688 7.515625 -0.921875 L 7.515625 0 L 0.6875 0 L 0.6875 -0.921875 C 1.25 -0.929688 1.703125 -0.976562 2.046875 -1.0625 C 2.398438 -1.144531 2.671875 -1.300781 2.859375 -1.53125 C 3.046875 -1.769531 3.171875 -2.097656 3.234375 -2.515625 C 3.296875 -2.929688 3.328125 -3.5 3.328125 -4.21875 L 3.328125 -13.453125 C 3.328125 -14.097656 3.296875 -14.628906 3.234375 -15.046875 C 3.171875 -15.472656 3.054688 -15.804688 2.890625 -16.046875 C 2.722656 -16.296875 2.484375 -16.46875 2.171875 -16.5625 C 1.859375 -16.664062 1.441406 -16.734375 0.921875 -16.765625 L 0.921875 -17.6875 L 7.328125 -17.6875 L 16.578125 -4.40625 L 16.671875 -4.40625 L 16.671875 -13.296875 C 16.671875 -14.046875 16.644531 -14.644531 16.59375 -15.09375 C 16.539062 -15.550781 16.425781 -15.898438 16.25 -16.140625 C 16.070312 -16.390625 15.828125 -16.550781 15.515625 -16.625 C 15.203125 -16.707031 14.789062 -16.753906 14.28125 -16.765625 L 14.28125 -17.6875 L 21.109375 -17.6875 L 21.109375 -16.765625 C 20.546875 -16.753906 20.085938 -16.703125 19.734375 -16.609375 C 19.390625 -16.523438 19.125 -16.367188 18.9375 -16.140625 C 18.75 -15.910156 18.625 -15.582031 18.5625 -15.15625 C 18.5 -14.726562 18.46875 -14.160156 18.46875 -13.453125 L 18.46875 0.234375 Z M 15.390625 0.234375" transform="translate(257.521 170.074)"/></g></g></g><g><g><g><path d="M 10.0625 0.234375 C 8.6875 0.234375 7.441406 0.03125 6.328125 -0.375 C 5.210938 -0.78125 4.269531 -1.363281 3.5 -2.125 C 2.726562 -2.882812 2.128906 -3.800781 1.703125 -4.875 C 1.285156 -5.957031 1.078125 -7.171875 1.078125 -8.515625 C 1.078125 -9.910156 1.300781 -11.1875 1.75 -12.34375 C 2.207031 -13.5 2.84375 -14.488281 3.65625 -15.3125 C 4.46875 -16.144531 5.4375 -16.785156 6.5625 -17.234375 C 7.695312 -17.691406 8.957031 -17.921875 10.34375 -17.921875 C 11.289062 -17.921875 12.191406 -17.789062 13.046875 -17.53125 C 13.898438 -17.269531 14.828125 -16.847656 15.828125 -16.265625 L 16.265625 -17.6875 L 17.09375 -17.6875 L 17.09375 -11.875 L 15.9375 -11.875 C 15.632812 -13.3125 15.019531 -14.425781 14.09375 -15.21875 C 13.164062 -16.019531 12.003906 -16.421875 10.609375 -16.421875 C 8.847656 -16.421875 7.476562 -15.742188 6.5 -14.390625 C 5.53125 -13.035156 5.046875 -11.140625 5.046875 -8.703125 C 5.046875 -6.316406 5.519531 -4.488281 6.46875 -3.21875 C 7.425781 -1.945312 8.804688 -1.3125 10.609375 -1.3125 C 11.910156 -1.3125 12.925781 -1.644531 13.65625 -2.3125 C 14.382812 -2.976562 14.75 -3.898438 14.75 -5.078125 C 14.75 -5.773438 14.5625 -6.289062 14.1875 -6.625 C 13.820312 -6.957031 13.203125 -7.160156 12.328125 -7.234375 L 12.328125 -8.15625 L 19.78125 -8.15625 L 19.78125 -7.234375 C 19.03125 -7.234375 18.507812 -7.066406 18.21875 -6.734375 C 17.925781 -6.410156 17.78125 -5.820312 17.78125 -4.96875 L 17.78125 -1.90625 C 17.4375 -1.90625 17.148438 -1.894531 16.921875 -1.875 C 16.691406 -1.851562 16.46875 -1.804688 16.25 -1.734375 C 16.03125 -1.660156 15.78125 -1.546875 15.5 -1.390625 C 15.226562 -1.242188 14.882812 -1.046875 14.46875 -0.796875 C 13.289062 -0.109375 11.820312 0.234375 10.0625 0.234375 Z M 10.0625 0.234375" transform="translate(281.168 170.074)"/></g></g></g><g><g><g><path d="M 18.484375 -3.703125 C 18.484375 -3.117188 18.507812 -2.644531 18.5625 -2.28125 C 18.625 -1.925781 18.738281 -1.648438 18.90625 -1.453125 C 19.082031 -1.265625 19.328125 -1.128906 19.640625 -1.046875 C 19.960938 -0.972656 20.382812 -0.929688 20.90625 -0.921875 L 20.90625 0 L 12.46875 0 L 12.46875 -0.921875 C 13.039062 -0.929688 13.5 -0.972656 13.84375 -1.046875 C 14.1875 -1.128906 14.453125 -1.257812 14.640625 -1.4375 C 14.835938 -1.625 14.960938 -1.882812 15.015625 -2.21875 C 15.078125 -2.5625 15.109375 -3 15.109375 -3.53125 L 15.109375 -8.34375 L 6.59375 -8.34375 L 6.59375 -3.703125 C 6.59375 -3.117188 6.625 -2.644531 6.6875 -2.28125 C 6.75 -1.925781 6.867188 -1.648438 7.046875 -1.453125 C 7.234375 -1.265625 7.5 -1.128906 7.84375 -1.046875 C 8.1875 -0.972656 8.640625 -0.929688 9.203125 -0.921875 L 9.203125 0 L 0.796875 0 L 0.796875 -0.921875 C 1.316406 -0.929688 1.734375 -0.972656 2.046875 -1.046875 C 2.367188 -1.128906 2.613281 -1.257812 2.78125 -1.4375 C 2.945312 -1.625 3.0625 -1.882812 3.125 -2.21875 C 3.1875 -2.5625 3.21875 -3 3.21875 -3.53125 L 3.21875 -14.15625 C 3.21875 -14.6875 3.191406 -15.113281 3.140625 -15.4375 C 3.085938 -15.769531 2.984375 -16.03125 2.828125 -16.21875 C 2.671875 -16.414062 2.453125 -16.546875 2.171875 -16.609375 C 1.890625 -16.679688 1.519531 -16.734375 1.0625 -16.765625 L 1.0625 -17.6875 L 8.984375 -17.6875 L 8.984375 -16.765625 C 8.460938 -16.753906 8.046875 -16.707031 7.734375 -16.625 C 7.421875 -16.550781 7.175781 -16.414062 7 -16.21875 C 6.832031 -16.019531 6.722656 -15.742188 6.671875 -15.390625 C 6.617188 -15.035156 6.59375 -14.566406 6.59375 -13.984375 L 6.59375 -9.765625 L 15.109375 -9.765625 L 15.109375 -14.15625 C 15.109375 -14.6875 15.078125 -15.113281 15.015625 -15.4375 C 14.960938 -15.769531 14.847656 -16.03125 14.671875 -16.21875 C 14.503906 -16.414062 14.265625 -16.546875 13.953125 -16.609375 C 13.640625 -16.679688 13.222656 -16.734375 12.703125 -16.765625 L 12.703125 -17.6875 L 20.65625 -17.6875 L 20.65625 -16.765625 C 20.1875 -16.753906 19.8125 -16.707031 19.53125 -16.625 C 19.25 -16.550781 19.03125 -16.414062 18.875 -16.21875 C 18.726562 -16.019531 18.625 -15.742188 18.5625 -15.390625 C 18.507812 -15.035156 18.484375 -14.566406 18.484375 -13.984375 Z M 18.484375 -3.703125" transform="translate(179.58 201.574)"/></g></g></g><g><g><g><path d="M 11.5 -5.359375 L 5 -5.359375 C 4.28125 -3.734375 3.921875 -2.601562 3.921875 -1.96875 C 3.921875 -1.507812 4.09375 -1.21875 4.4375 -1.09375 C 4.789062 -0.976562 5.3125 -0.921875 6 -0.921875 L 6 0 L -0.296875 0 L -0.296875 -0.921875 C 0.0664062 -0.960938 0.382812 -1.019531 0.65625 -1.09375 C 0.925781 -1.175781 1.160156 -1.285156 1.359375 -1.421875 C 1.566406 -1.554688 1.75 -1.734375 1.90625 -1.953125 C 2.0625 -2.179688 2.207031 -2.457031 2.34375 -2.78125 L 8.390625 -17.921875 L 10.078125 -17.921875 L 15.578125 -4.5 C 15.898438 -3.71875 16.171875 -3.101562 16.390625 -2.65625 C 16.609375 -2.21875 16.84375 -1.878906 17.09375 -1.640625 C 17.351562 -1.398438 17.644531 -1.234375 17.96875 -1.140625 C 18.300781 -1.054688 18.726562 -0.988281 19.25 -0.9375 L 19.25 0 L 10.5625 0 L 10.5625 -0.9375 C 11.300781 -0.96875 11.832031 -1.046875 12.15625 -1.171875 C 12.476562 -1.296875 12.640625 -1.539062 12.640625 -1.90625 C 12.640625 -2.125 12.582031 -2.398438 12.46875 -2.734375 C 12.363281 -3.066406 12.21875 -3.476562 12.03125 -3.96875 Z M 5.53125 -6.734375 L 11 -6.734375 L 8.359375 -13.6875 L 8.265625 -13.6875 Z M 5.53125 -6.734375" transform="translate(203.342 201.574)"/></g></g></g><g><g><g><path d="M 15.390625 0.234375 L 5.21875 -14.265625 L 5.125 -14.265625 L 5.125 -4.390625 C 5.125 -3.617188 5.148438 -3.007812 5.203125 -2.5625 C 5.253906 -2.125 5.367188 -1.78125 5.546875 -1.53125 C 5.722656 -1.289062 5.96875 -1.128906 6.28125 -1.046875 C 6.59375 -0.972656 7.003906 -0.929688 7.515625 -0.921875 L 7.515625 0 L 0.6875 0 L 0.6875 -0.921875 C 1.25 -0.929688 1.703125 -0.976562 2.046875 -1.0625 C 2.398438 -1.144531 2.671875 -1.300781 2.859375 -1.53125 C 3.046875 -1.769531 3.171875 -2.097656 3.234375 -2.515625 C 3.296875 -2.929688 3.328125 -3.5 3.328125 -4.21875 L 3.328125 -13.453125 C 3.328125 -14.097656 3.296875 -14.628906 3.234375 -15.046875 C 3.171875 -15.472656 3.054688 -15.804688 2.890625 -16.046875 C 2.722656 -16.296875 2.484375 -16.46875 2.171875 -16.5625 C 1.859375 -16.664062 1.441406 -16.734375 0.921875 -16.765625 L 0.921875 -17.6875 L 7.328125 -17.6875 L 16.578125 -4.40625 L 16.671875 -4.40625 L 16.671875 -13.296875 C 16.671875 -14.046875 16.644531 -14.644531 16.59375 -15.09375 C 16.539062 -15.550781 16.425781 -15.898438 16.25 -16.140625 C 16.070312 -16.390625 15.828125 -16.550781 15.515625 -16.625 C 15.203125 -16.707031 14.789062 -16.753906 14.28125 -16.765625 L 14.28125 -17.6875 L 21.109375 -17.6875 L 21.109375 -16.765625 C 20.546875 -16.753906 20.085938 -16.703125 19.734375 -16.609375 C 19.390625 -16.523438 19.125 -16.367188 18.9375 -16.140625 C 18.75 -15.910156 18.625 -15.582031 18.5625 -15.15625 C 18.5 -14.726562 18.46875 -14.160156 18.46875 -13.453125 L 18.46875 0.234375 Z M 15.390625 0.234375" transform="translate(223.981 201.574)"/></g></g></g><g><g><g><path d="M 0.796875 0 L 0.796875 -0.921875 C 1.304688 -0.929688 1.71875 -0.972656 2.03125 -1.046875 C 2.34375 -1.117188 2.585938 -1.25 2.765625 -1.4375 C 2.941406 -1.625 3.0625 -1.878906 3.125 -2.203125 C 3.1875 -2.535156 3.21875 -2.976562 3.21875 -3.53125 L 3.21875 -14.15625 C 3.21875 -14.6875 3.191406 -15.113281 3.140625 -15.4375 C 3.097656 -15.769531 3 -16.03125 2.84375 -16.21875 C 2.695312 -16.414062 2.488281 -16.546875 2.21875 -16.609375 C 1.945312 -16.679688 1.597656 -16.734375 1.171875 -16.765625 L 1.171875 -17.6875 L 9.90625 -17.6875 C 11.375 -17.6875 12.726562 -17.457031 13.96875 -17 C 15.207031 -16.539062 16.273438 -15.90625 17.171875 -15.09375 C 18.078125 -14.28125 18.78125 -13.3125 19.28125 -12.1875 C 19.789062 -11.070312 20.046875 -9.859375 20.046875 -8.546875 C 20.046875 -7.285156 19.804688 -6.128906 19.328125 -5.078125 C 18.859375 -4.035156 18.195312 -3.140625 17.34375 -2.390625 C 16.5 -1.640625 15.484375 -1.050781 14.296875 -0.625 C 13.109375 -0.207031 11.800781 0 10.375 0 Z M 6.984375 -16.28125 C 6.722656 -16.28125 6.59375 -16.148438 6.59375 -15.890625 L 6.59375 -4.015625 C 6.59375 -3.128906 6.867188 -2.472656 7.421875 -2.046875 C 7.972656 -1.617188 8.820312 -1.40625 9.96875 -1.40625 C 11.976562 -1.40625 13.519531 -2.007812 14.59375 -3.21875 C 15.675781 -4.425781 16.21875 -6.1875 16.21875 -8.5 C 16.21875 -9.726562 16.070312 -10.820312 15.78125 -11.78125 C 15.488281 -12.75 15.066406 -13.566406 14.515625 -14.234375 C 13.960938 -14.898438 13.289062 -15.40625 12.5 -15.75 C 11.71875 -16.101562 10.835938 -16.28125 9.859375 -16.28125 Z M 6.984375 -16.28125" transform="translate(247.628 201.574)"/></g></g></g><g><g><g><path d="M 1.234375 -5.859375 L 2.140625 -5.859375 C 2.347656 -4.398438 2.925781 -3.253906 3.875 -2.421875 C 4.832031 -1.585938 6.003906 -1.171875 7.390625 -1.171875 C 7.960938 -1.171875 8.484375 -1.238281 8.953125 -1.375 C 9.429688 -1.507812 9.835938 -1.703125 10.171875 -1.953125 C 10.515625 -2.210938 10.773438 -2.515625 10.953125 -2.859375 C 11.140625 -3.203125 11.234375 -3.585938 11.234375 -4.015625 C 11.234375 -4.390625 11.175781 -4.707031 11.0625 -4.96875 C 10.945312 -5.238281 10.726562 -5.5 10.40625 -5.75 C 10.082031 -6 9.640625 -6.253906 9.078125 -6.515625 C 8.523438 -6.773438 7.800781 -7.078125 6.90625 -7.421875 C 5.113281 -8.109375 3.789062 -8.90625 2.9375 -9.8125 C 2.082031 -10.726562 1.65625 -11.804688 1.65625 -13.046875 C 1.65625 -13.765625 1.789062 -14.421875 2.0625 -15.015625 C 2.34375 -15.617188 2.726562 -16.132812 3.21875 -16.5625 C 3.71875 -16.988281 4.316406 -17.320312 5.015625 -17.5625 C 5.710938 -17.800781 6.484375 -17.921875 7.328125 -17.921875 C 8.109375 -17.921875 8.84375 -17.796875 9.53125 -17.546875 C 10.21875 -17.304688 10.898438 -16.941406 11.578125 -16.453125 L 11.984375 -17.59375 L 12.546875 -17.59375 L 12.796875 -12.640625 L 11.890625 -12.640625 C 11.523438 -13.890625 10.953125 -14.847656 10.171875 -15.515625 C 9.390625 -16.179688 8.488281 -16.515625 7.46875 -16.515625 C 6.519531 -16.515625 5.75 -16.28125 5.15625 -15.8125 C 4.5625 -15.34375 4.265625 -14.742188 4.265625 -14.015625 C 4.265625 -13.691406 4.316406 -13.398438 4.421875 -13.140625 C 4.535156 -12.890625 4.738281 -12.648438 5.03125 -12.421875 C 5.320312 -12.191406 5.71875 -11.957031 6.21875 -11.71875 C 6.726562 -11.488281 7.378906 -11.226562 8.171875 -10.9375 C 9.242188 -10.519531 10.160156 -10.097656 10.921875 -9.671875 C 11.679688 -9.253906 12.300781 -8.804688 12.78125 -8.328125 C 13.257812 -7.847656 13.613281 -7.335938 13.84375 -6.796875 C 14.070312 -6.265625 14.1875 -5.675781 14.1875 -5.03125 C 14.1875 -4.25 14.019531 -3.535156 13.6875 -2.890625 C 13.351562 -2.242188 12.882812 -1.691406 12.28125 -1.234375 C 11.675781 -0.773438 10.953125 -0.414062 10.109375 -0.15625 C 9.273438 0.101562 8.351562 0.234375 7.34375 0.234375 C 6.425781 0.234375 5.597656 0.109375 4.859375 -0.140625 C 4.128906 -0.398438 3.375 -0.8125 2.59375 -1.375 L 2.140625 0 L 1.578125 0 Z M 1.234375 -5.859375" transform="translate(270.793 201.574)"/></g></g></g><g><g><g><path d="M 0.8125 -3.828125 L 1.390625 -3.828125 C 1.535156 -2.878906 1.914062 -2.128906 2.53125 -1.578125 C 3.15625 -1.035156 3.921875 -0.765625 4.828125 -0.765625 C 5.203125 -0.765625 5.539062 -0.804688 5.84375 -0.890625 C 6.15625 -0.984375 6.421875 -1.113281 6.640625 -1.28125 C 6.859375 -1.445312 7.023438 -1.640625 7.140625 -1.859375 C 7.265625 -2.085938 7.328125 -2.34375 7.328125 -2.625 C 7.328125 -2.863281 7.289062 -3.070312 7.21875 -3.25 C 7.144531 -3.425781 7.003906 -3.59375 6.796875 -3.75 C 6.585938 -3.914062 6.300781 -4.082031 5.9375 -4.25 C 5.570312 -4.425781 5.097656 -4.625 4.515625 -4.84375 C 3.347656 -5.289062 2.484375 -5.8125 1.921875 -6.40625 C 1.359375 -7.007812 1.078125 -7.710938 1.078125 -8.515625 C 1.078125 -8.984375 1.164062 -9.410156 1.34375 -9.796875 C 1.53125 -10.191406 1.785156 -10.53125 2.109375 -10.8125 C 2.429688 -11.09375 2.816406 -11.3125 3.265625 -11.46875 C 3.722656 -11.625 4.226562 -11.703125 4.78125 -11.703125 C 5.289062 -11.703125 5.769531 -11.617188 6.21875 -11.453125 C 6.675781 -11.296875 7.125 -11.054688 7.5625 -10.734375 L 7.828125 -11.484375 L 8.1875 -11.484375 L 8.359375 -8.25 L 7.765625 -8.25 C 7.523438 -9.070312 7.148438 -9.695312 6.640625 -10.125 C 6.128906 -10.5625 5.539062 -10.78125 4.875 -10.78125 C 4.25 -10.78125 3.742188 -10.628906 3.359375 -10.328125 C 2.984375 -10.023438 2.796875 -9.632812 2.796875 -9.15625 C 2.796875 -8.9375 2.828125 -8.742188 2.890625 -8.578125 C 2.960938 -8.421875 3.09375 -8.265625 3.28125 -8.109375 C 3.46875 -7.960938 3.726562 -7.8125 4.0625 -7.65625 C 4.394531 -7.5 4.820312 -7.328125 5.34375 -7.140625 C 6.039062 -6.867188 6.632812 -6.59375 7.125 -6.3125 C 7.625 -6.039062 8.03125 -5.75 8.34375 -5.4375 C 8.65625 -5.125 8.882812 -4.789062 9.03125 -4.4375 C 9.1875 -4.09375 9.265625 -3.707031 9.265625 -3.28125 C 9.265625 -2.769531 9.15625 -2.304688 8.9375 -1.890625 C 8.71875 -1.472656 8.410156 -1.113281 8.015625 -0.8125 C 7.617188 -0.507812 7.148438 -0.269531 6.609375 -0.09375 C 6.066406 0.0703125 5.460938 0.15625 4.796875 0.15625 C 4.203125 0.15625 3.660156 0.0703125 3.171875 -0.09375 C 2.691406 -0.257812 2.195312 -0.53125 1.6875 -0.90625 L 1.390625 0 L 1.03125 0 Z M 0.8125 -3.828125" transform="translate(80.508 234.125)"/></g></g></g><g><g><g><path d="M 3.65625 -2.453125 C 3.65625 -2.046875 3.664062 -1.722656 3.6875 -1.484375 C 3.71875 -1.253906 3.773438 -1.070312 3.859375 -0.9375 C 3.941406 -0.8125 4.070312 -0.726562 4.25 -0.6875 C 4.425781 -0.644531 4.664062 -0.613281 4.96875 -0.59375 L 4.96875 0 L 0.234375 0 L 0.234375 -0.59375 C 0.535156 -0.613281 0.773438 -0.644531 0.953125 -0.6875 C 1.140625 -0.726562 1.273438 -0.804688 1.359375 -0.921875 C 1.453125 -1.046875 1.507812 -1.21875 1.53125 -1.4375 C 1.5625 -1.664062 1.578125 -1.972656 1.578125 -2.359375 L 1.578125 -8.515625 C 1.578125 -9.117188 1.566406 -9.59375 1.546875 -9.9375 C 1.535156 -10.28125 1.507812 -10.539062 1.46875 -10.71875 C 1.4375 -10.851562 1.398438 -10.957031 1.359375 -11.03125 C 1.328125 -11.101562 1.265625 -11.160156 1.171875 -11.203125 C 1.085938 -11.253906 0.972656 -11.285156 0.828125 -11.296875 C 0.679688 -11.316406 0.5 -11.328125 0.28125 -11.328125 L 0.28125 -11.875 L 3.625 -12.453125 L 3.625 -6.921875 L 3.6875 -6.921875 C 4 -7.328125 4.347656 -7.625 4.734375 -7.8125 C 5.117188 -8 5.582031 -8.09375 6.125 -8.09375 C 7.101562 -8.09375 7.863281 -7.796875 8.40625 -7.203125 C 8.664062 -6.898438 8.867188 -6.535156 9.015625 -6.109375 C 9.160156 -5.679688 9.234375 -5.238281 9.234375 -4.78125 L 9.234375 -2.453125 C 9.234375 -2.035156 9.242188 -1.707031 9.265625 -1.46875 C 9.285156 -1.238281 9.335938 -1.0625 9.421875 -0.9375 C 9.515625 -0.8125 9.644531 -0.726562 9.8125 -0.6875 C 9.976562 -0.644531 10.210938 -0.613281 10.515625 -0.59375 L 10.515625 0 L 5.8125 0 L 5.8125 -0.59375 C 6.113281 -0.601562 6.351562 -0.628906 6.53125 -0.671875 C 6.707031 -0.722656 6.84375 -0.804688 6.9375 -0.921875 C 7.03125 -1.046875 7.085938 -1.21875 7.109375 -1.4375 C 7.140625 -1.664062 7.15625 -1.972656 7.15625 -2.359375 L 7.15625 -4.203125 C 7.15625 -5.265625 7.039062 -6.015625 6.8125 -6.453125 C 6.582031 -6.890625 6.1875 -7.109375 5.625 -7.109375 C 5.019531 -7.109375 4.546875 -6.890625 4.203125 -6.453125 C 4.023438 -6.222656 3.890625 -5.9375 3.796875 -5.59375 C 3.703125 -5.25 3.65625 -4.867188 3.65625 -4.453125 Z M 3.65625 -2.453125" transform="translate(90.453 234.125)"/></g></g></g><g><g><g><path d="M 5.15625 -4.28125 C 4.320312 -3.894531 3.691406 -3.539062 3.265625 -3.21875 C 2.835938 -2.894531 2.625 -2.554688 2.625 -2.203125 C 2.625 -1.910156 2.703125 -1.679688 2.859375 -1.515625 C 3.023438 -1.347656 3.226562 -1.265625 3.46875 -1.265625 C 3.707031 -1.265625 3.929688 -1.304688 4.140625 -1.390625 C 4.347656 -1.472656 4.523438 -1.582031 4.671875 -1.71875 C 4.828125 -1.863281 4.945312 -2.03125 5.03125 -2.21875 C 5.113281 -2.414062 5.15625 -2.625 5.15625 -2.84375 Z M 5.15625 -5.0625 L 5.15625 -5.703125 C 5.15625 -6.273438 5.050781 -6.691406 4.84375 -6.953125 C 4.644531 -7.222656 4.332031 -7.359375 3.90625 -7.359375 C 3.613281 -7.359375 3.390625 -7.28125 3.234375 -7.125 C 3.085938 -6.976562 2.945312 -6.722656 2.8125 -6.359375 C 2.726562 -6.109375 2.601562 -5.910156 2.4375 -5.765625 C 2.269531 -5.628906 2.039062 -5.5625 1.75 -5.5625 C 1.46875 -5.5625 1.253906 -5.644531 1.109375 -5.8125 C 0.960938 -5.988281 0.890625 -6.234375 0.890625 -6.546875 C 0.890625 -7.023438 1.148438 -7.398438 1.671875 -7.671875 C 2.191406 -7.953125 2.984375 -8.09375 4.046875 -8.09375 C 5.171875 -8.09375 5.972656 -7.890625 6.453125 -7.484375 C 6.929688 -7.085938 7.171875 -6.410156 7.171875 -5.453125 L 7.171875 -2.171875 C 7.171875 -1.328125 7.34375 -0.90625 7.6875 -0.90625 C 7.875 -0.90625 8.046875 -0.96875 8.203125 -1.09375 L 8.4375 -0.65625 C 8.289062 -0.40625 8.066406 -0.207031 7.765625 -0.0625 C 7.472656 0.0820312 7.144531 0.15625 6.78125 0.15625 C 6.320312 0.15625 5.972656 0.015625 5.734375 -0.265625 C 5.492188 -0.546875 5.375 -0.941406 5.375 -1.453125 L 5.296875 -1.453125 C 5.003906 -0.929688 4.628906 -0.535156 4.171875 -0.265625 C 3.710938 0.00390625 3.1875 0.140625 2.59375 0.140625 C 1.96875 0.140625 1.460938 -0.0351562 1.078125 -0.390625 C 0.703125 -0.753906 0.515625 -1.21875 0.515625 -1.78125 C 0.515625 -2.21875 0.707031 -2.628906 1.09375 -3.015625 C 1.488281 -3.398438 2.140625 -3.78125 3.046875 -4.15625 Z M 5.15625 -5.0625" transform="translate(101.163 234.125)"/></g></g></g><g><g><g><path d="M 3.875 -2.328125 C 3.875 -1.929688 3.890625 -1.617188 3.921875 -1.390625 C 3.953125 -1.171875 4.023438 -1 4.140625 -0.875 C 4.253906 -0.757812 4.414062 -0.679688 4.625 -0.640625 C 4.832031 -0.609375 5.109375 -0.59375 5.453125 -0.59375 L 5.453125 0 L 0.453125 0 L 0.453125 -0.59375 C 0.753906 -0.613281 0.992188 -0.644531 1.171875 -0.6875 C 1.347656 -0.726562 1.476562 -0.804688 1.5625 -0.921875 C 1.65625 -1.046875 1.710938 -1.21875 1.734375 -1.4375 C 1.765625 -1.664062 1.78125 -1.972656 1.78125 -2.359375 L 1.78125 -4.1875 C 1.78125 -4.800781 1.765625 -5.289062 1.734375 -5.65625 C 1.703125 -6.03125 1.632812 -6.316406 1.53125 -6.515625 C 1.4375 -6.722656 1.296875 -6.859375 1.109375 -6.921875 C 0.929688 -6.984375 0.691406 -7.015625 0.390625 -7.015625 L 0.390625 -7.546875 L 3.390625 -8.09375 L 3.625 -6.375 L 3.6875 -6.375 C 3.957031 -6.90625 4.3125 -7.320312 4.75 -7.625 C 5.195312 -7.9375 5.664062 -8.09375 6.15625 -8.09375 C 6.53125 -8.09375 6.835938 -8 7.078125 -7.8125 C 7.316406 -7.625 7.4375 -7.382812 7.4375 -7.09375 C 7.4375 -6.769531 7.34375 -6.5 7.15625 -6.28125 C 6.976562 -6.0625 6.726562 -5.953125 6.40625 -5.953125 C 6.257812 -5.953125 6.125 -5.984375 6 -6.046875 C 5.875 -6.109375 5.765625 -6.175781 5.671875 -6.25 C 5.578125 -6.320312 5.484375 -6.390625 5.390625 -6.453125 C 5.296875 -6.523438 5.195312 -6.5625 5.09375 -6.5625 C 4.90625 -6.5625 4.726562 -6.4375 4.5625 -6.1875 C 4.394531 -5.9375 4.253906 -5.597656 4.140625 -5.171875 C 4.054688 -4.867188 3.988281 -4.53125 3.9375 -4.15625 C 3.894531 -3.78125 3.875 -3.410156 3.875 -3.046875 Z M 3.875 -2.328125" transform="translate(109.773 234.125)"/></g></g></g><g><g><g><path d="M 8.09375 -1.390625 C 7.1875 -0.359375 6.050781 0.15625 4.6875 0.15625 C 4.070312 0.15625 3.507812 0.0546875 3 -0.140625 C 2.5 -0.335938 2.066406 -0.613281 1.703125 -0.96875 C 1.347656 -1.320312 1.066406 -1.742188 0.859375 -2.234375 C 0.660156 -2.722656 0.5625 -3.269531 0.5625 -3.875 C 0.5625 -4.488281 0.664062 -5.050781 0.875 -5.5625 C 1.09375 -6.082031 1.394531 -6.53125 1.78125 -6.90625 C 2.164062 -7.28125 2.617188 -7.570312 3.140625 -7.78125 C 3.671875 -7.988281 4.25 -8.09375 4.875 -8.09375 C 5.9375 -8.09375 6.757812 -7.804688 7.34375 -7.234375 C 7.9375 -6.671875 8.234375 -5.875 8.234375 -4.84375 C 8.234375 -4.6875 8.207031 -4.585938 8.15625 -4.546875 C 8.101562 -4.515625 7.960938 -4.5 7.734375 -4.5 L 2.90625 -4.5 C 2.863281 -4.40625 2.84375 -4.238281 2.84375 -4 C 2.84375 -3.019531 3.054688 -2.242188 3.484375 -1.671875 C 3.910156 -1.109375 4.488281 -0.828125 5.21875 -0.828125 C 5.632812 -0.828125 6.050781 -0.921875 6.46875 -1.109375 C 6.882812 -1.296875 7.289062 -1.566406 7.6875 -1.921875 Z M 5.1875 -5.34375 C 5.59375 -5.34375 5.851562 -5.363281 5.96875 -5.40625 C 6.082031 -5.445312 6.140625 -5.554688 6.140625 -5.734375 C 6.140625 -6.171875 6.015625 -6.53125 5.765625 -6.8125 C 5.515625 -7.09375 5.195312 -7.234375 4.8125 -7.234375 C 4.382812 -7.234375 4.003906 -7.054688 3.671875 -6.703125 C 3.335938 -6.347656 3.117188 -5.894531 3.015625 -5.34375 Z M 5.1875 -5.34375" transform="translate(117.243 234.125)"/></g></g></g><g><g><g><path d="M 13.3125 -2.90625 L 15.328125 -8.703125 C 15.566406 -9.367188 15.6875 -9.867188 15.6875 -10.203125 C 15.6875 -10.515625 15.578125 -10.71875 15.359375 -10.8125 C 15.148438 -10.90625 14.820312 -10.953125 14.375 -10.953125 L 14.375 -11.546875 L 18.625 -11.546875 L 18.625 -10.953125 C 18.25 -10.953125 17.90625 -10.859375 17.59375 -10.671875 C 17.289062 -10.484375 17.0625 -10.171875 16.90625 -9.734375 L 13.296875 0.15625 L 11.953125 0.15625 L 9.34375 -7.765625 L 6.375 0.15625 L 5.125 0.15625 L 1.953125 -8.609375 C 1.765625 -9.117188 1.585938 -9.53125 1.421875 -9.84375 C 1.265625 -10.15625 1.09375 -10.390625 0.90625 -10.546875 C 0.726562 -10.703125 0.535156 -10.804688 0.328125 -10.859375 C 0.117188 -10.910156 -0.128906 -10.9375 -0.421875 -10.9375 L -0.421875 -11.546875 L 5.25 -11.546875 L 5.25 -10.9375 C 4.738281 -10.9375 4.390625 -10.890625 4.203125 -10.796875 C 4.015625 -10.703125 3.921875 -10.539062 3.921875 -10.3125 C 3.921875 -10.238281 3.921875 -10.160156 3.921875 -10.078125 C 3.929688 -10.003906 3.953125 -9.921875 3.984375 -9.828125 C 4.015625 -9.734375 4.050781 -9.613281 4.09375 -9.46875 C 4.144531 -9.332031 4.210938 -9.160156 4.296875 -8.953125 L 6.390625 -2.90625 L 8.8125 -9.546875 C 8.71875 -9.804688 8.617188 -10.019531 8.515625 -10.1875 C 8.421875 -10.363281 8.304688 -10.5 8.171875 -10.59375 C 8.035156 -10.695312 7.878906 -10.769531 7.703125 -10.8125 C 7.535156 -10.863281 7.332031 -10.90625 7.09375 -10.9375 L 7.09375 -11.546875 L 12.390625 -11.546875 L 12.390625 -10.9375 C 11.972656 -10.9375 11.660156 -10.882812 11.453125 -10.78125 C 11.253906 -10.675781 11.15625 -10.472656 11.15625 -10.171875 C 11.15625 -10.015625 11.175781 -9.835938 11.21875 -9.640625 C 11.269531 -9.441406 11.335938 -9.210938 11.421875 -8.953125 Z M 13.3125 -2.90625" transform="translate(130.008 234.125)"/></g></g></g><g><g><g><path d="M 3.65625 -2.453125 C 3.65625 -2.046875 3.664062 -1.722656 3.6875 -1.484375 C 3.71875 -1.253906 3.773438 -1.070312 3.859375 -0.9375 C 3.941406 -0.8125 4.070312 -0.726562 4.25 -0.6875 C 4.425781 -0.644531 4.664062 -0.613281 4.96875 -0.59375 L 4.96875 0 L 0.234375 0 L 0.234375 -0.59375 C 0.535156 -0.613281 0.773438 -0.644531 0.953125 -0.6875 C 1.140625 -0.726562 1.273438 -0.804688 1.359375 -0.921875 C 1.453125 -1.046875 1.507812 -1.21875 1.53125 -1.4375 C 1.5625 -1.664062 1.578125 -1.972656 1.578125 -2.359375 L 1.578125 -8.515625 C 1.578125 -9.117188 1.566406 -9.59375 1.546875 -9.9375 C 1.535156 -10.28125 1.507812 -10.539062 1.46875 -10.71875 C 1.4375 -10.851562 1.398438 -10.957031 1.359375 -11.03125 C 1.328125 -11.101562 1.265625 -11.160156 1.171875 -11.203125 C 1.085938 -11.253906 0.972656 -11.285156 0.828125 -11.296875 C 0.679688 -11.316406 0.5 -11.328125 0.28125 -11.328125 L 0.28125 -11.875 L 3.625 -12.453125 L 3.625 -6.921875 L 3.6875 -6.921875 C 4 -7.328125 4.347656 -7.625 4.734375 -7.8125 C 5.117188 -8 5.582031 -8.09375 6.125 -8.09375 C 7.101562 -8.09375 7.863281 -7.796875 8.40625 -7.203125 C 8.664062 -6.898438 8.867188 -6.535156 9.015625 -6.109375 C 9.160156 -5.679688 9.234375 -5.238281 9.234375 -4.78125 L 9.234375 -2.453125 C 9.234375 -2.035156 9.242188 -1.707031 9.265625 -1.46875 C 9.285156 -1.238281 9.335938 -1.0625 9.421875 -0.9375 C 9.515625 -0.8125 9.644531 -0.726562 9.8125 -0.6875 C 9.976562 -0.644531 10.210938 -0.613281 10.515625 -0.59375 L 10.515625 0 L 5.8125 0 L 5.8125 -0.59375 C 6.113281 -0.601562 6.351562 -0.628906 6.53125 -0.671875 C 6.707031 -0.722656 6.84375 -0.804688 6.9375 -0.921875 C 7.03125 -1.046875 7.085938 -1.21875 7.109375 -1.4375 C 7.140625 -1.664062 7.15625 -1.972656 7.15625 -2.359375 L 7.15625 -4.203125 C 7.15625 -5.265625 7.039062 -6.015625 6.8125 -6.453125 C 6.582031 -6.890625 6.1875 -7.109375 5.625 -7.109375 C 5.019531 -7.109375 4.546875 -6.890625 4.203125 -6.453125 C 4.023438 -6.222656 3.890625 -5.9375 3.796875 -5.59375 C 3.703125 -5.25 3.65625 -4.867188 3.65625 -4.453125 Z M 3.65625 -2.453125" transform="translate(148.413 234.125)"/></g></g></g><g><g><g><path d="M 5.15625 -4.28125 C 4.320312 -3.894531 3.691406 -3.539062 3.265625 -3.21875 C 2.835938 -2.894531 2.625 -2.554688 2.625 -2.203125 C 2.625 -1.910156 2.703125 -1.679688 2.859375 -1.515625 C 3.023438 -1.347656 3.226562 -1.265625 3.46875 -1.265625 C 3.707031 -1.265625 3.929688 -1.304688 4.140625 -1.390625 C 4.347656 -1.472656 4.523438 -1.582031 4.671875 -1.71875 C 4.828125 -1.863281 4.945312 -2.03125 5.03125 -2.21875 C 5.113281 -2.414062 5.15625 -2.625 5.15625 -2.84375 Z M 5.15625 -5.0625 L 5.15625 -5.703125 C 5.15625 -6.273438 5.050781 -6.691406 4.84375 -6.953125 C 4.644531 -7.222656 4.332031 -7.359375 3.90625 -7.359375 C 3.613281 -7.359375 3.390625 -7.28125 3.234375 -7.125 C 3.085938 -6.976562 2.945312 -6.722656 2.8125 -6.359375 C 2.726562 -6.109375 2.601562 -5.910156 2.4375 -5.765625 C 2.269531 -5.628906 2.039062 -5.5625 1.75 -5.5625 C 1.46875 -5.5625 1.253906 -5.644531 1.109375 -5.8125 C 0.960938 -5.988281 0.890625 -6.234375 0.890625 -6.546875 C 0.890625 -7.023438 1.148438 -7.398438 1.671875 -7.671875 C 2.191406 -7.953125 2.984375 -8.09375 4.046875 -8.09375 C 5.171875 -8.09375 5.972656 -7.890625 6.453125 -7.484375 C 6.929688 -7.085938 7.171875 -6.410156 7.171875 -5.453125 L 7.171875 -2.171875 C 7.171875 -1.328125 7.34375 -0.90625 7.6875 -0.90625 C 7.875 -0.90625 8.046875 -0.96875 8.203125 -1.09375 L 8.4375 -0.65625 C 8.289062 -0.40625 8.066406 -0.207031 7.765625 -0.0625 C 7.472656 0.0820312 7.144531 0.15625 6.78125 0.15625 C 6.320312 0.15625 5.972656 0.015625 5.734375 -0.265625 C 5.492188 -0.546875 5.375 -0.941406 5.375 -1.453125 L 5.296875 -1.453125 C 5.003906 -0.929688 4.628906 -0.535156 4.171875 -0.265625 C 3.710938 0.00390625 3.1875 0.140625 2.59375 0.140625 C 1.96875 0.140625 1.460938 -0.0351562 1.078125 -0.390625 C 0.703125 -0.753906 0.515625 -1.21875 0.515625 -1.78125 C 0.515625 -2.21875 0.707031 -2.628906 1.09375 -3.015625 C 1.488281 -3.398438 2.140625 -3.78125 3.046875 -4.15625 Z M 5.15625 -5.0625" transform="translate(159.123 234.125)"/></g></g></g><g><g><g><path d="M 0.375 -7.125 L 0.375 -7.796875 C 0.976562 -7.972656 1.476562 -8.234375 1.875 -8.578125 C 2.28125 -8.921875 2.585938 -9.316406 2.796875 -9.765625 L 3.5625 -9.765625 L 3.5625 -7.953125 L 5.28125 -7.953125 L 5.28125 -7.125 L 3.5625 -7.125 L 3.5625 -2.515625 C 3.5625 -1.898438 3.625 -1.460938 3.75 -1.203125 C 3.882812 -0.941406 4.113281 -0.8125 4.4375 -0.8125 C 4.832031 -0.8125 5.128906 -0.988281 5.328125 -1.34375 L 5.640625 -0.921875 C 5.359375 -0.203125 4.695312 0.15625 3.65625 0.15625 C 2.96875 0.15625 2.429688 -0.00390625 2.046875 -0.328125 C 1.660156 -0.648438 1.46875 -1.101562 1.46875 -1.6875 L 1.46875 -7.125 Z M 0.375 -7.125" transform="translate(167.733 234.125)"/></g></g></g><g><g><g><path d="M 1.515625 -9.65625 C 1.367188 -9.914062 1.234375 -10.128906 1.109375 -10.296875 C 0.984375 -10.472656 0.851562 -10.609375 0.71875 -10.703125 C 0.59375 -10.796875 0.453125 -10.859375 0.296875 -10.890625 C 0.148438 -10.929688 -0.015625 -10.953125 -0.203125 -10.953125 L -0.203125 -11.546875 L 4.828125 -11.546875 L 4.828125 -10.953125 C 4.410156 -10.953125 4.113281 -10.910156 3.9375 -10.828125 C 3.769531 -10.742188 3.6875 -10.625 3.6875 -10.46875 C 3.6875 -10.363281 3.71875 -10.242188 3.78125 -10.109375 C 3.84375 -9.972656 3.9375 -9.785156 4.0625 -9.546875 L 6.203125 -5.4375 L 6.265625 -5.4375 L 8.15625 -8.59375 C 8.488281 -9.15625 8.71875 -9.570312 8.84375 -9.84375 C 8.976562 -10.125 9.046875 -10.34375 9.046875 -10.5 C 9.046875 -10.664062 8.96875 -10.78125 8.8125 -10.84375 C 8.65625 -10.914062 8.367188 -10.953125 7.953125 -10.953125 L 7.953125 -11.546875 L 11.71875 -11.546875 L 11.71875 -10.953125 C 11.5 -10.953125 11.296875 -10.914062 11.109375 -10.84375 C 10.929688 -10.769531 10.742188 -10.628906 10.546875 -10.421875 C 10.359375 -10.222656 10.140625 -9.941406 9.890625 -9.578125 C 9.648438 -9.210938 9.359375 -8.734375 9.015625 -8.140625 L 6.828125 -4.390625 L 6.828125 -2.859375 C 6.828125 -2.359375 6.847656 -1.957031 6.890625 -1.65625 C 6.929688 -1.363281 7.007812 -1.140625 7.125 -0.984375 C 7.25 -0.828125 7.410156 -0.722656 7.609375 -0.671875 C 7.804688 -0.617188 8.066406 -0.59375 8.390625 -0.59375 L 8.390625 0 L 3.046875 0 L 3.046875 -0.59375 C 3.359375 -0.59375 3.613281 -0.617188 3.8125 -0.671875 C 4.019531 -0.722656 4.179688 -0.820312 4.296875 -0.96875 C 4.421875 -1.125 4.503906 -1.34375 4.546875 -1.625 C 4.597656 -1.914062 4.625 -2.296875 4.625 -2.765625 L 4.625 -4.140625 Z M 1.515625 -9.65625" transform="translate(177.453 234.125)"/></g></g></g><g><g><g><path d="M 4.921875 -8.09375 C 5.515625 -8.09375 6.078125 -7.988281 6.609375 -7.78125 C 7.148438 -7.582031 7.625 -7.300781 8.03125 -6.9375 C 8.4375 -6.582031 8.753906 -6.15625 8.984375 -5.65625 C 9.222656 -5.164062 9.34375 -4.625 9.34375 -4.03125 C 9.34375 -3.425781 9.222656 -2.867188 8.984375 -2.359375 C 8.753906 -1.847656 8.4375 -1.40625 8.03125 -1.03125 C 7.625 -0.664062 7.148438 -0.375 6.609375 -0.15625 C 6.078125 0.0507812 5.515625 0.15625 4.921875 0.15625 C 4.328125 0.15625 3.765625 0.0507812 3.234375 -0.15625 C 2.703125 -0.363281 2.238281 -0.648438 1.84375 -1.015625 C 1.445312 -1.390625 1.132812 -1.832031 0.90625 -2.34375 C 0.675781 -2.863281 0.5625 -3.425781 0.5625 -4.03125 C 0.5625 -4.625 0.675781 -5.171875 0.90625 -5.671875 C 1.132812 -6.171875 1.445312 -6.597656 1.84375 -6.953125 C 2.238281 -7.316406 2.703125 -7.597656 3.234375 -7.796875 C 3.765625 -7.992188 4.328125 -8.09375 4.921875 -8.09375 Z M 4.921875 -7.234375 C 4.617188 -7.234375 4.34375 -7.15625 4.09375 -7 C 3.84375 -6.84375 3.628906 -6.625 3.453125 -6.34375 C 3.273438 -6.0625 3.140625 -5.722656 3.046875 -5.328125 C 2.953125 -4.929688 2.90625 -4.492188 2.90625 -4.015625 C 2.90625 -3.515625 2.953125 -3.0625 3.046875 -2.65625 C 3.140625 -2.257812 3.273438 -1.921875 3.453125 -1.640625 C 3.628906 -1.367188 3.835938 -1.15625 4.078125 -1 C 4.328125 -0.84375 4.609375 -0.765625 4.921875 -0.765625 C 5.234375 -0.765625 5.515625 -0.84375 5.765625 -1 C 6.023438 -1.15625 6.242188 -1.375 6.421875 -1.65625 C 6.597656 -1.9375 6.734375 -2.273438 6.828125 -2.671875 C 6.929688 -3.078125 6.984375 -3.523438 6.984375 -4.015625 C 6.984375 -4.492188 6.929688 -4.925781 6.828125 -5.3125 C 6.734375 -5.707031 6.597656 -6.046875 6.421875 -6.328125 C 6.242188 -6.617188 6.023438 -6.84375 5.765625 -7 C 5.515625 -7.15625 5.234375 -7.234375 4.921875 -7.234375 Z M 4.921875 -7.234375" transform="translate(188.853 234.125)"/></g></g></g><g><g><g><path d="M 6.96875 -5.484375 C 6.96875 -5.890625 6.957031 -6.207031 6.9375 -6.4375 C 6.925781 -6.675781 6.875 -6.859375 6.78125 -6.984375 C 6.6875 -7.109375 6.550781 -7.191406 6.375 -7.234375 C 6.207031 -7.285156 5.972656 -7.320312 5.671875 -7.34375 L 5.671875 -7.953125 L 9.0625 -7.953125 L 9.0625 -3.40625 C 9.0625 -2.789062 9.066406 -2.3125 9.078125 -1.96875 C 9.097656 -1.625 9.128906 -1.367188 9.171875 -1.203125 C 9.191406 -1.066406 9.222656 -0.960938 9.265625 -0.890625 C 9.304688 -0.816406 9.367188 -0.753906 9.453125 -0.703125 C 9.546875 -0.660156 9.671875 -0.628906 9.828125 -0.609375 C 9.984375 -0.597656 10.1875 -0.59375 10.4375 -0.59375 L 10.4375 -0.015625 L 7.453125 0.171875 L 7.296875 -1.171875 L 7.234375 -1.171875 C 6.972656 -0.753906 6.609375 -0.425781 6.140625 -0.1875 C 5.671875 0.0390625 5.144531 0.15625 4.5625 0.15625 C 3.488281 0.15625 2.671875 -0.222656 2.109375 -0.984375 C 1.679688 -1.566406 1.46875 -2.394531 1.46875 -3.46875 L 1.46875 -5.484375 C 1.46875 -5.898438 1.457031 -6.222656 1.4375 -6.453125 C 1.414062 -6.691406 1.363281 -6.867188 1.28125 -6.984375 C 1.195312 -7.109375 1.066406 -7.191406 0.890625 -7.234375 C 0.722656 -7.285156 0.488281 -7.320312 0.1875 -7.34375 L 0.1875 -7.953125 L 3.5625 -7.953125 L 3.5625 -3.703125 C 3.5625 -2.691406 3.6875 -1.957031 3.9375 -1.5 C 4.1875 -1.050781 4.582031 -0.828125 5.125 -0.828125 C 5.71875 -0.828125 6.175781 -1.097656 6.5 -1.640625 C 6.8125 -2.160156 6.96875 -2.925781 6.96875 -3.9375 Z M 6.96875 -5.484375" transform="translate(198.753 234.125)"/></g></g></g><g><g><g><path d="M 10.609375 -11.546875 L 11.34375 -11.546875 L 11.046875 -7.75 L 10.4375 -7.75 C 10.226562 -8.675781 9.820312 -9.398438 9.21875 -9.921875 C 8.613281 -10.453125 7.878906 -10.71875 7.015625 -10.71875 C 6.429688 -10.71875 5.90625 -10.597656 5.4375 -10.359375 C 4.976562 -10.128906 4.59375 -9.796875 4.28125 -9.359375 C 3.96875 -8.929688 3.726562 -8.40625 3.5625 -7.78125 C 3.394531 -7.15625 3.3125 -6.453125 3.3125 -5.671875 C 3.3125 -4.117188 3.628906 -2.925781 4.265625 -2.09375 C 4.898438 -1.257812 5.835938 -0.84375 7.078125 -0.84375 C 8.078125 -0.84375 8.90625 -1.109375 9.5625 -1.640625 C 10.21875 -2.179688 10.6875 -2.988281 10.96875 -4.0625 L 11.625 -4.0625 L 11.625 0 L 10.921875 0 L 10.703125 -1.1875 C 9.609375 -0.289062 8.273438 0.15625 6.703125 0.15625 C 5.796875 0.15625 4.972656 0.0195312 4.234375 -0.25 C 3.492188 -0.519531 2.863281 -0.898438 2.34375 -1.390625 C 1.820312 -1.890625 1.414062 -2.492188 1.125 -3.203125 C 0.84375 -3.921875 0.703125 -4.710938 0.703125 -5.578125 C 0.703125 -6.484375 0.851562 -7.3125 1.15625 -8.0625 C 1.457031 -8.8125 1.878906 -9.457031 2.421875 -10 C 2.960938 -10.539062 3.609375 -10.957031 4.359375 -11.25 C 5.117188 -11.550781 5.960938 -11.703125 6.890625 -11.703125 C 7.492188 -11.703125 8.0625 -11.613281 8.59375 -11.4375 C 9.125 -11.269531 9.695312 -11 10.3125 -10.625 Z M 10.609375 -11.546875" transform="translate(213.378 234.125)"/></g></g></g><g><g><g><path d="M 5.15625 -4.28125 C 4.320312 -3.894531 3.691406 -3.539062 3.265625 -3.21875 C 2.835938 -2.894531 2.625 -2.554688 2.625 -2.203125 C 2.625 -1.910156 2.703125 -1.679688 2.859375 -1.515625 C 3.023438 -1.347656 3.226562 -1.265625 3.46875 -1.265625 C 3.707031 -1.265625 3.929688 -1.304688 4.140625 -1.390625 C 4.347656 -1.472656 4.523438 -1.582031 4.671875 -1.71875 C 4.828125 -1.863281 4.945312 -2.03125 5.03125 -2.21875 C 5.113281 -2.414062 5.15625 -2.625 5.15625 -2.84375 Z M 5.15625 -5.0625 L 5.15625 -5.703125 C 5.15625 -6.273438 5.050781 -6.691406 4.84375 -6.953125 C 4.644531 -7.222656 4.332031 -7.359375 3.90625 -7.359375 C 3.613281 -7.359375 3.390625 -7.28125 3.234375 -7.125 C 3.085938 -6.976562 2.945312 -6.722656 2.8125 -6.359375 C 2.726562 -6.109375 2.601562 -5.910156 2.4375 -5.765625 C 2.269531 -5.628906 2.039062 -5.5625 1.75 -5.5625 C 1.46875 -5.5625 1.253906 -5.644531 1.109375 -5.8125 C 0.960938 -5.988281 0.890625 -6.234375 0.890625 -6.546875 C 0.890625 -7.023438 1.148438 -7.398438 1.671875 -7.671875 C 2.191406 -7.953125 2.984375 -8.09375 4.046875 -8.09375 C 5.171875 -8.09375 5.972656 -7.890625 6.453125 -7.484375 C 6.929688 -7.085938 7.171875 -6.410156 7.171875 -5.453125 L 7.171875 -2.171875 C 7.171875 -1.328125 7.34375 -0.90625 7.6875 -0.90625 C 7.875 -0.90625 8.046875 -0.96875 8.203125 -1.09375 L 8.4375 -0.65625 C 8.289062 -0.40625 8.066406 -0.207031 7.765625 -0.0625 C 7.472656 0.0820312 7.144531 0.15625 6.78125 0.15625 C 6.320312 0.15625 5.972656 0.015625 5.734375 -0.265625 C 5.492188 -0.546875 5.375 -0.941406 5.375 -1.453125 L 5.296875 -1.453125 C 5.003906 -0.929688 4.628906 -0.535156 4.171875 -0.265625 C 3.710938 0.00390625 3.1875 0.140625 2.59375 0.140625 C 1.96875 0.140625 1.460938 -0.0351562 1.078125 -0.390625 C 0.703125 -0.753906 0.515625 -1.21875 0.515625 -1.78125 C 0.515625 -2.21875 0.707031 -2.628906 1.09375 -3.015625 C 1.488281 -3.398438 2.140625 -3.78125 3.046875 -4.15625 Z M 5.15625 -5.0625" transform="translate(225.723 234.125)"/></g></g></g><g><g><g><path d="M 3.859375 -2.4375 C 3.859375 -2.03125 3.867188 -1.707031 3.890625 -1.46875 C 3.921875 -1.238281 3.976562 -1.0625 4.0625 -0.9375 C 4.144531 -0.8125 4.269531 -0.726562 4.4375 -0.6875 C 4.613281 -0.644531 4.851562 -0.613281 5.15625 -0.59375 L 5.15625 0 L 0.4375 0 L 0.4375 -0.59375 C 0.726562 -0.613281 0.957031 -0.644531 1.125 -0.6875 C 1.300781 -0.726562 1.4375 -0.804688 1.53125 -0.921875 C 1.632812 -1.046875 1.695312 -1.21875 1.71875 -1.4375 C 1.75 -1.65625 1.765625 -1.957031 1.765625 -2.34375 L 1.765625 -4.21875 C 1.765625 -4.800781 1.753906 -5.273438 1.734375 -5.640625 C 1.710938 -6.003906 1.691406 -6.253906 1.671875 -6.390625 C 1.640625 -6.515625 1.597656 -6.617188 1.546875 -6.703125 C 1.492188 -6.796875 1.414062 -6.863281 1.3125 -6.90625 C 1.21875 -6.945312 1.09375 -6.972656 0.9375 -6.984375 C 0.789062 -7.003906 0.601562 -7.015625 0.375 -7.015625 L 0.375 -7.53125 L 3.265625 -8.09375 L 3.46875 -6.78125 L 3.53125 -6.78125 C 3.851562 -7.195312 4.238281 -7.519531 4.6875 -7.75 C 5.144531 -7.976562 5.644531 -8.09375 6.1875 -8.09375 C 6.820312 -8.09375 7.335938 -8.003906 7.734375 -7.828125 C 8.128906 -7.660156 8.484375 -7.367188 8.796875 -6.953125 C 8.960938 -6.722656 9.109375 -6.425781 9.234375 -6.0625 C 9.367188 -5.695312 9.4375 -5.195312 9.4375 -4.5625 L 9.4375 -2.4375 C 9.4375 -2.03125 9.445312 -1.707031 9.46875 -1.46875 C 9.5 -1.238281 9.554688 -1.0625 9.640625 -0.9375 C 9.722656 -0.8125 9.847656 -0.726562 10.015625 -0.6875 C 10.191406 -0.644531 10.421875 -0.613281 10.703125 -0.59375 L 10.703125 0 L 6.015625 0 L 6.015625 -0.59375 C 6.316406 -0.601562 6.550781 -0.628906 6.71875 -0.671875 C 6.894531 -0.722656 7.03125 -0.804688 7.125 -0.921875 C 7.21875 -1.046875 7.273438 -1.21875 7.296875 -1.4375 C 7.328125 -1.664062 7.34375 -1.96875 7.34375 -2.34375 L 7.34375 -4.375 C 7.34375 -4.882812 7.3125 -5.3125 7.25 -5.65625 C 7.195312 -6.007812 7.101562 -6.296875 6.96875 -6.515625 C 6.832031 -6.734375 6.65625 -6.890625 6.4375 -6.984375 C 6.21875 -7.078125 5.941406 -7.125 5.609375 -7.125 C 5.285156 -7.125 5.007812 -7.03125 4.78125 -6.84375 C 4.550781 -6.664062 4.351562 -6.421875 4.1875 -6.109375 C 4.09375 -5.921875 4.015625 -5.6875 3.953125 -5.40625 C 3.890625 -5.125 3.859375 -4.828125 3.859375 -4.515625 Z M 3.859375 -2.4375" transform="translate(234.333 234.125)"/></g></g></g><g><g><g><path d="M 0.8125 -3.828125 L 1.390625 -3.828125 C 1.535156 -2.878906 1.914062 -2.128906 2.53125 -1.578125 C 3.15625 -1.035156 3.921875 -0.765625 4.828125 -0.765625 C 5.203125 -0.765625 5.539062 -0.804688 5.84375 -0.890625 C 6.15625 -0.984375 6.421875 -1.113281 6.640625 -1.28125 C 6.859375 -1.445312 7.023438 -1.640625 7.140625 -1.859375 C 7.265625 -2.085938 7.328125 -2.34375 7.328125 -2.625 C 7.328125 -2.863281 7.289062 -3.070312 7.21875 -3.25 C 7.144531 -3.425781 7.003906 -3.59375 6.796875 -3.75 C 6.585938 -3.914062 6.300781 -4.082031 5.9375 -4.25 C 5.570312 -4.425781 5.097656 -4.625 4.515625 -4.84375 C 3.347656 -5.289062 2.484375 -5.8125 1.921875 -6.40625 C 1.359375 -7.007812 1.078125 -7.710938 1.078125 -8.515625 C 1.078125 -8.984375 1.164062 -9.410156 1.34375 -9.796875 C 1.53125 -10.191406 1.785156 -10.53125 2.109375 -10.8125 C 2.429688 -11.09375 2.816406 -11.3125 3.265625 -11.46875 C 3.722656 -11.625 4.226562 -11.703125 4.78125 -11.703125 C 5.289062 -11.703125 5.769531 -11.617188 6.21875 -11.453125 C 6.675781 -11.296875 7.125 -11.054688 7.5625 -10.734375 L 7.828125 -11.484375 L 8.1875 -11.484375 L 8.359375 -8.25 L 7.765625 -8.25 C 7.523438 -9.070312 7.148438 -9.695312 6.640625 -10.125 C 6.128906 -10.5625 5.539062 -10.78125 4.875 -10.78125 C 4.25 -10.78125 3.742188 -10.628906 3.359375 -10.328125 C 2.984375 -10.023438 2.796875 -9.632812 2.796875 -9.15625 C 2.796875 -8.9375 2.828125 -8.742188 2.890625 -8.578125 C 2.960938 -8.421875 3.09375 -8.265625 3.28125 -8.109375 C 3.46875 -7.960938 3.726562 -7.8125 4.0625 -7.65625 C 4.394531 -7.5 4.820312 -7.328125 5.34375 -7.140625 C 6.039062 -6.867188 6.632812 -6.59375 7.125 -6.3125 C 7.625 -6.039062 8.03125 -5.75 8.34375 -5.4375 C 8.65625 -5.125 8.882812 -4.789062 9.03125 -4.4375 C 9.1875 -4.09375 9.265625 -3.707031 9.265625 -3.28125 C 9.265625 -2.769531 9.15625 -2.304688 8.9375 -1.890625 C 8.71875 -1.472656 8.410156 -1.113281 8.015625 -0.8125 C 7.617188 -0.507812 7.148438 -0.269531 6.609375 -0.09375 C 6.066406 0.0703125 5.460938 0.15625 4.796875 0.15625 C 4.203125 0.15625 3.660156 0.0703125 3.171875 -0.09375 C 2.691406 -0.257812 2.195312 -0.53125 1.6875 -0.90625 L 1.390625 0 L 1.03125 0 Z M 0.8125 -3.828125" transform="translate(249.228 234.125)"/></g></g></g><g><g><g><path d="M 3.265625 -6.96875 L 3.328125 -6.96875 C 3.984375 -7.71875 4.84375 -8.09375 5.90625 -8.09375 C 6.488281 -8.09375 7.019531 -7.988281 7.5 -7.78125 C 7.988281 -7.582031 8.410156 -7.300781 8.765625 -6.9375 C 9.117188 -6.570312 9.394531 -6.132812 9.59375 -5.625 C 9.789062 -5.125 9.890625 -4.570312 9.890625 -3.96875 C 9.890625 -3.375 9.789062 -2.828125 9.59375 -2.328125 C 9.394531 -1.828125 9.117188 -1.390625 8.765625 -1.015625 C 8.421875 -0.648438 8.003906 -0.363281 7.515625 -0.15625 C 7.035156 0.0507812 6.507812 0.15625 5.9375 0.15625 C 4.96875 0.15625 4.226562 -0.175781 3.71875 -0.84375 L 3.65625 -0.84375 L 3.65625 1.25 C 3.65625 1.644531 3.675781 1.960938 3.71875 2.203125 C 3.757812 2.441406 3.84375 2.625 3.96875 2.75 C 4.101562 2.882812 4.285156 2.976562 4.515625 3.03125 C 4.753906 3.082031 5.066406 3.113281 5.453125 3.125 L 5.453125 3.75 L 0.28125 3.75 L 0.28125 3.125 C 0.550781 3.113281 0.769531 3.082031 0.9375 3.03125 C 1.113281 2.976562 1.25 2.882812 1.34375 2.75 C 1.4375 2.625 1.5 2.445312 1.53125 2.21875 C 1.570312 2 1.59375 1.707031 1.59375 1.34375 L 1.59375 -4.234375 C 1.59375 -4.691406 1.582031 -5.128906 1.5625 -5.546875 C 1.539062 -5.960938 1.515625 -6.253906 1.484375 -6.421875 C 1.429688 -6.648438 1.316406 -6.804688 1.140625 -6.890625 C 0.972656 -6.984375 0.675781 -7.03125 0.25 -7.03125 L 0.25 -7.625 L 3.265625 -8.046875 Z M 5.8125 -7.25 C 5.5 -7.25 5.195312 -7.175781 4.90625 -7.03125 C 4.613281 -6.894531 4.382812 -6.710938 4.21875 -6.484375 C 4.039062 -6.253906 3.90625 -5.960938 3.8125 -5.609375 C 3.726562 -5.265625 3.6875 -4.894531 3.6875 -4.5 L 3.6875 -3.484375 C 3.6875 -2.773438 3.863281 -2.171875 4.21875 -1.671875 C 4.59375 -1.117188 5.125 -0.84375 5.8125 -0.84375 C 6.425781 -0.84375 6.878906 -1.09375 7.171875 -1.59375 C 7.472656 -2.101562 7.625 -2.882812 7.625 -3.9375 C 7.625 -6.144531 7.019531 -7.25 5.8125 -7.25 Z M 5.8125 -7.25" transform="translate(259.173 234.125)"/></g></g></g><g><g><g><path d="M 5.15625 -4.28125 C 4.320312 -3.894531 3.691406 -3.539062 3.265625 -3.21875 C 2.835938 -2.894531 2.625 -2.554688 2.625 -2.203125 C 2.625 -1.910156 2.703125 -1.679688 2.859375 -1.515625 C 3.023438 -1.347656 3.226562 -1.265625 3.46875 -1.265625 C 3.707031 -1.265625 3.929688 -1.304688 4.140625 -1.390625 C 4.347656 -1.472656 4.523438 -1.582031 4.671875 -1.71875 C 4.828125 -1.863281 4.945312 -2.03125 5.03125 -2.21875 C 5.113281 -2.414062 5.15625 -2.625 5.15625 -2.84375 Z M 5.15625 -5.0625 L 5.15625 -5.703125 C 5.15625 -6.273438 5.050781 -6.691406 4.84375 -6.953125 C 4.644531 -7.222656 4.332031 -7.359375 3.90625 -7.359375 C 3.613281 -7.359375 3.390625 -7.28125 3.234375 -7.125 C 3.085938 -6.976562 2.945312 -6.722656 2.8125 -6.359375 C 2.726562 -6.109375 2.601562 -5.910156 2.4375 -5.765625 C 2.269531 -5.628906 2.039062 -5.5625 1.75 -5.5625 C 1.46875 -5.5625 1.253906 -5.644531 1.109375 -5.8125 C 0.960938 -5.988281 0.890625 -6.234375 0.890625 -6.546875 C 0.890625 -7.023438 1.148438 -7.398438 1.671875 -7.671875 C 2.191406 -7.953125 2.984375 -8.09375 4.046875 -8.09375 C 5.171875 -8.09375 5.972656 -7.890625 6.453125 -7.484375 C 6.929688 -7.085938 7.171875 -6.410156 7.171875 -5.453125 L 7.171875 -2.171875 C 7.171875 -1.328125 7.34375 -0.90625 7.6875 -0.90625 C 7.875 -0.90625 8.046875 -0.96875 8.203125 -1.09375 L 8.4375 -0.65625 C 8.289062 -0.40625 8.066406 -0.207031 7.765625 -0.0625 C 7.472656 0.0820312 7.144531 0.15625 6.78125 0.15625 C 6.320312 0.15625 5.972656 0.015625 5.734375 -0.265625 C 5.492188 -0.546875 5.375 -0.941406 5.375 -1.453125 L 5.296875 -1.453125 C 5.003906 -0.929688 4.628906 -0.535156 4.171875 -0.265625 C 3.710938 0.00390625 3.1875 0.140625 2.59375 0.140625 C 1.96875 0.140625 1.460938 -0.0351562 1.078125 -0.390625 C 0.703125 -0.753906 0.515625 -1.21875 0.515625 -1.78125 C 0.515625 -2.21875 0.707031 -2.628906 1.09375 -3.015625 C 1.488281 -3.398438 2.140625 -3.78125 3.046875 -4.15625 Z M 5.15625 -5.0625" transform="translate(269.628 234.125)"/></g></g></g><g><g><g><path d="M 3.875 -2.328125 C 3.875 -1.929688 3.890625 -1.617188 3.921875 -1.390625 C 3.953125 -1.171875 4.023438 -1 4.140625 -0.875 C 4.253906 -0.757812 4.414062 -0.679688 4.625 -0.640625 C 4.832031 -0.609375 5.109375 -0.59375 5.453125 -0.59375 L 5.453125 0 L 0.453125 0 L 0.453125 -0.59375 C 0.753906 -0.613281 0.992188 -0.644531 1.171875 -0.6875 C 1.347656 -0.726562 1.476562 -0.804688 1.5625 -0.921875 C 1.65625 -1.046875 1.710938 -1.21875 1.734375 -1.4375 C 1.765625 -1.664062 1.78125 -1.972656 1.78125 -2.359375 L 1.78125 -4.1875 C 1.78125 -4.800781 1.765625 -5.289062 1.734375 -5.65625 C 1.703125 -6.03125 1.632812 -6.316406 1.53125 -6.515625 C 1.4375 -6.722656 1.296875 -6.859375 1.109375 -6.921875 C 0.929688 -6.984375 0.691406 -7.015625 0.390625 -7.015625 L 0.390625 -7.546875 L 3.390625 -8.09375 L 3.625 -6.375 L 3.6875 -6.375 C 3.957031 -6.90625 4.3125 -7.320312 4.75 -7.625 C 5.195312 -7.9375 5.664062 -8.09375 6.15625 -8.09375 C 6.53125 -8.09375 6.835938 -8 7.078125 -7.8125 C 7.316406 -7.625 7.4375 -7.382812 7.4375 -7.09375 C 7.4375 -6.769531 7.34375 -6.5 7.15625 -6.28125 C 6.976562 -6.0625 6.726562 -5.953125 6.40625 -5.953125 C 6.257812 -5.953125 6.125 -5.984375 6 -6.046875 C 5.875 -6.109375 5.765625 -6.175781 5.671875 -6.25 C 5.578125 -6.320312 5.484375 -6.390625 5.390625 -6.453125 C 5.296875 -6.523438 5.195312 -6.5625 5.09375 -6.5625 C 4.90625 -6.5625 4.726562 -6.4375 4.5625 -6.1875 C 4.394531 -5.9375 4.253906 -5.597656 4.140625 -5.171875 C 4.054688 -4.867188 3.988281 -4.53125 3.9375 -4.15625 C 3.894531 -3.78125 3.875 -3.410156 3.875 -3.046875 Z M 3.875 -2.328125" transform="translate(278.238 234.125)"/></g></g></g><g><g><g><path d="M 8.09375 -1.390625 C 7.1875 -0.359375 6.050781 0.15625 4.6875 0.15625 C 4.070312 0.15625 3.507812 0.0546875 3 -0.140625 C 2.5 -0.335938 2.066406 -0.613281 1.703125 -0.96875 C 1.347656 -1.320312 1.066406 -1.742188 0.859375 -2.234375 C 0.660156 -2.722656 0.5625 -3.269531 0.5625 -3.875 C 0.5625 -4.488281 0.664062 -5.050781 0.875 -5.5625 C 1.09375 -6.082031 1.394531 -6.53125 1.78125 -6.90625 C 2.164062 -7.28125 2.617188 -7.570312 3.140625 -7.78125 C 3.671875 -7.988281 4.25 -8.09375 4.875 -8.09375 C 5.9375 -8.09375 6.757812 -7.804688 7.34375 -7.234375 C 7.9375 -6.671875 8.234375 -5.875 8.234375 -4.84375 C 8.234375 -4.6875 8.207031 -4.585938 8.15625 -4.546875 C 8.101562 -4.515625 7.960938 -4.5 7.734375 -4.5 L 2.90625 -4.5 C 2.863281 -4.40625 2.84375 -4.238281 2.84375 -4 C 2.84375 -3.019531 3.054688 -2.242188 3.484375 -1.671875 C 3.910156 -1.109375 4.488281 -0.828125 5.21875 -0.828125 C 5.632812 -0.828125 6.050781 -0.921875 6.46875 -1.109375 C 6.882812 -1.296875 7.289062 -1.566406 7.6875 -1.921875 Z M 5.1875 -5.34375 C 5.59375 -5.34375 5.851562 -5.363281 5.96875 -5.40625 C 6.082031 -5.445312 6.140625 -5.554688 6.140625 -5.734375 C 6.140625 -6.171875 6.015625 -6.53125 5.765625 -6.8125 C 5.515625 -7.09375 5.195312 -7.234375 4.8125 -7.234375 C 4.382812 -7.234375 4.003906 -7.054688 3.671875 -6.703125 C 3.335938 -6.347656 3.117188 -5.894531 3.015625 -5.34375 Z M 5.1875 -5.34375" transform="translate(285.708 234.125)"/></g></g></g><path stroke-linecap="round" transform="matrix(.04078 3.7558 -3.74978 .04072 149.717 148.352)" fill="none" d="M 0.500108 -0.000165308 L 15.076529 0.0000299885" stroke="#000"/></svg>